<svg xmlns="http://www.w3.org/2000/svg" aria-hidden="true" focusable="false" data-prefix="fas" data-icon="concierge-bell" role="img" width="512" height="512" style=""><rect id="backgroundrect" width="100%" height="100%" x="0" y="0" fill="none" stroke="none"/><g class="currentLayer" style=""><title>Layer 1</title><path fill="#ffffff" d="M275.49999688963703,166.62096177475922 V152.9090867294177 h11.833333372463017 c6.537916688285816,0 11.833333372463017,-5.2954166841772015 11.833333372463017,-11.833333372463017 V129.24241998449168 c0,-6.537916688285816 -5.2954166841772015,-11.833333372463017 -11.833333372463017,-11.833333372463017 h-71.0000002347781 c-6.537916688285816,0 -11.833333372463017,5.2954166841772015 -11.833333372463017,11.833333372463017 v11.833333372463017 c0,6.537916688285816 5.2954166841772015,11.833333372463017 11.833333372463017,11.833333372463017 h11.833333372463017 v13.71187504534152 C147.91447563441233,178.13627431283732 86.16666293022877,246.9692953737831 86.16666293022877,330.40908731636296 h331.33333442896446 c0,-83.43979194257984 -61.747812704183566,-152.27281300352567 -142.0000004695562,-163.78812554160373 zM429.33333073165625,354.075754061289 H74.33332955776575 c-6.537916688285816,0 -11.833333372463017,5.2954166841772015 -11.833333372463017,11.833333372463017 v23.666666744926033 c0,6.537916688285816 5.2954166841772015,11.833333372463017 11.833333372463017,11.833333372463017 h355.0000011738905 c6.537916688285816,0 11.833333372463017,-5.2954166841772015 11.833333372463017,-11.833333372463017 v-23.666666744926033 c0,-6.537916688285816 -5.2954166841772015,-11.833333372463017 -11.833333372463017,-11.833333372463017 z" id="svg_1" class="" fill-opacity="1"/></g></svg>