<svg xmlns="http://www.w3.org/2000/svg" aria-hidden="true" focusable="false" data-prefix="fas" data-icon="receipt" role="img" width="384" height="512"><rect id="backgroundrect" width="100%" height="100%" x="0" y="0" fill="none" stroke="none"/><g class="currentLayer" style=""><title>Layer 1</title><path fill="#ffffff" d="M315.7104884235348,47.330848556716745 L287.423955512495,81.64189513104408 L247.3513672218553,47.330848556716745 a11.712392533477429,12.177358047584926 0 0 0 -14.143266455519916,0 L193.13551247569558,81.64189513104408 L153.0629241850558,47.330848556716745 a11.712392533477429,12.177358047584926 0 0 0 -14.143266455519916,0 L98.84706943889614,81.64189513104408 L70.56053652785631,47.330848556716745 C62.75227483887136,41.28046311169027 51.702847920496424,47.02449992658882 51.702847920496424,57.13400472081027 v367.6183561535072 c0,10.109504794221447 11.049426918374934,15.853541609119997 18.85768860735989,9.803156164093526 L98.84706943889614,400.24447046408363 l40.072588290639764,34.311046574327335 a11.712392533477429,12.177358047584926 0 0 0 14.143266455519916,0 L193.13551247569558,400.24447046408363 l40.072588290639764,34.311046574327335 a11.712392533477429,12.177358047584926 0 0 0 14.143266455519916,0 L287.423955512495,400.24447046408363 l28.28653291103983,34.311046574327335 c7.734598842862454,6.050385445026473 18.85768860735989,0.306348630127923 18.85768860735989,-9.803156164093526 V57.13400472081027 c0,-10.109504794221447 -11.049426918374934,-15.853541609119997 -18.85768860735989,-9.803156164093526 zM287.423955512495,320.59382663082374 c0,3.3698349314071496 -2.6518624604099843,6.126972602558454 -5.893027689799965,6.126972602558454 H104.7400971286961 c-3.241165229389981,0 -5.893027689799965,-2.757137671151304 -5.893027689799965,-6.126972602558454 v-12.253945205116906 c0,-3.3698349314071496 2.6518624604099843,-6.126972602558454 5.893027689799965,-6.126972602558454 h176.79083069399894 c3.241165229389981,0 5.893027689799965,2.757137671151304 5.893027689799965,6.126972602558454 v12.253945205116906 zm0,-73.52367123070144 c0,3.3698349314071496 -2.6518624604099843,6.126972602558454 -5.893027689799965,6.126972602558454 H104.7400971286961 c-3.241165229389981,0 -5.893027689799965,-2.757137671151304 -5.893027689799965,-6.126972602558454 v-12.253945205116906 c0,-3.3698349314071496 2.6518624604099843,-6.126972602558454 5.893027689799965,-6.126972602558454 h176.79083069399894 c3.241165229389981,0 5.893027689799965,2.757137671151304 5.893027689799965,6.126972602558454 v12.253945205116906 zm0,-73.52367123070144 c0,3.3698349314071496 -2.6518624604099843,6.126972602558454 -5.893027689799965,6.126972602558454 H104.7400971286961 c-3.241165229389981,0 -5.893027689799965,-2.757137671151304 -5.893027689799965,-6.126972602558454 v-12.253945205116906 c0,-3.3698349314071496 2.6518624604099843,-6.126972602558454 5.893027689799965,-6.126972602558454 h176.79083069399894 c3.241165229389981,0 5.893027689799965,2.757137671151304 5.893027689799965,6.126972602558454 v12.253945205116906 z" id="svg_1" class="selected" fill-opacity="1"/></g></svg>