<svg xmlns="http://www.w3.org/2000/svg" xmlns:xlink="http://www.w3.org/1999/xlink" version="1.1" width="380.721" height="380.722" style="enable-background:new 0 0 380.721 380.722;" xml:space="preserve"><rect id="backgroundrect" width="100%" height="100%" x="0" y="0" fill="none" stroke="none"/>
















<g class="currentLayer" style=""><title>Layer 1</title><g id="svg_1" class="selected" fill="#ffffff" fill-opacity="1">
	<g id="svg_2" fill="#ffffff" fill-opacity="1">
		<path d="M140.79345372927176,191.82107275868543 c0.19103343817317156,-3.111552640964618 0.3820668763463432,-6.227690084445392 0.7901143002842372,-9.375157011786566 c0.7542000139076813,-7.462530228796773 2.3749277033688685,-14.955625807701253 4.030805545453919,-22.244697674636786 c1.007892419801653,-3.6357483953118006 2.0998395523995015,-7.227177032967425 3.245276047685838,-10.738371626590318 c1.4648444039118793,-3.4271398808266973 2.8983593239633585,-6.83594055158877 4.328053575251374,-10.165271312070804 c3.2361064426535258,-6.498957566651296 6.8542797616533955,-12.571528499300074 11.173163731872457,-17.65454622221182 c1.0254674961135848,-1.309725252115264 2.0417653871948582,-2.5789514153378157 3.036667533200735,-3.8527623810765235 c1.1362668902540245,-1.1362668902540245 2.2732979142607412,-2.237383627884185 3.369065715622053,-3.3385003655143453 c2.313032869400761,-2.0906699473671897 4.318883970219062,-4.354798256595618 6.628096170856359,-6.015260901196826 c4.6023775924680494,-3.4088006707620733 8.674446360567373,-6.649491915931755 12.819871968925197,-8.656107150502748 c3.9956553928300558,-2.2289781566045654 7.422031139904061,-4.163764818422447 10.51142390204059,-5.255711951020295 c6.054995856336845,-2.436822537336976 9.491305342195854,-3.661728942903352 9.491305342195854,-3.661728942903352 s-2.9304529415764513,2.3260231431965366 -8.052441485875526,6.099315613993021 c-2.646195185574772,1.7269422810854707 -5.451330191709623,4.452607376940282 -8.789830557223969,7.244752109279357 c-3.480629243515185,2.6630061281340107 -6.631916839619823,6.480618356586671 -10.378464629072063,10.139290764479252 c-1.8736559616024664,1.8690711590863103 -3.3285666267293412,4.217254181110935 -5.10059279922368,6.378988567478546 c-0.8611787392846576,1.1011167376301607 -1.7445173573974029,2.2106389465399414 -2.6553647906070843,3.3385003655143453 c-0.73662493759575,1.2432456156310008 -1.499994556535743,2.4903119000254645 -2.272533780508049,3.7641228657641714 c-3.3071708816539465,4.901153889770889 -5.779143571614784,10.654316913794123 -8.355038451941828,16.491534650613552 c-1.056796979973985,3.0542426095126665 -2.1258200999910533,6.152804976681508 -3.2185313663415935,9.281932693958058 c-0.7457945426280623,3.2536815189654575 -1.5710589955361631,6.542513190554779 -2.471972689960839,9.819118722101017 c-1.3540450097714398,6.73354662872795 -2.6813453381986356,13.601580797929813 -3.2544456527181507,20.663704940315622 c-0.3988778189055824,2.561376339025884 -0.5899112570787541,5.144912556879857 -0.8298492554242571,7.74602385104576 c56.114926262740106,0.009169605032312242 99.546760498287,0.04431975765617585 160.31908198368902,0.04431975765617585 c0.2040237119689473,-2.663770261886704 0.3194079086255431,-5.362690676397271 0.3194079086255431,-8.074601364703614 c0,-51.182442889108806 -37.298132602682706,-93.33664549015353 -85.29337360931031,-98.9209349548317 c3.098562367168842,-2.8983593239633585 5.060857844083661,-7.009398913450011 5.060857844083661,-11.581975289563044 c0.01757507631193179,-8.789066423471278 -7.102623231278517,-15.900859259782106 -15.874114578437863,-15.900859259782106 c-8.780660952191656,0 -15.909264731061723,7.11179283631083 -15.909264731061723,15.900859259782106 c0,4.581745981145346 1.9531258718825057,8.682851831846992 5.0600937103309676,11.581975289563044 c-47.991420337864156,5.58428946467815 -85.27961920176185,47.738492065722866 -85.27961920176185,98.9209349548317 c0,2.703505217026724 0.0970449865919712,5.366511345160735 0.2972480297974552,8.021876135767817 C129.4651708456027,191.82107275868543 135.18700438576553,191.82107275868543 140.79345372927176,191.82107275868543 z" fill="#ffffff" id="svg_3" fill-opacity="1"/>
		<rect x="105.74646098094361" y="197.74234147717922" width="227.24726367489066" height="20.047813182284337" fill="#ffffff" id="svg_4" fill-opacity="1"/>
		<path d="M239.70063427655492,232.02138535409497 c-11.54988167194995,5.611034146022394 -51.82202284011259,20.135688517204972 -51.82202284011259,20.135688517204972 l-47.60476865900166,-2.982414036759554 c0,0 27.22990627720387,-7.573329622937212 37.78564993690064,-9.943672523789925 c10.574082869761392,-2.361937429573093 5.974761812304113,-14.284716372837075 0.12837447045237133,-14.284716372837075 c-5.845623208099049,0 -56.793477035131204,2.103660221162965 -56.793477035131204,2.103660221162965 L87.56389651669923,239.2309873107505 l8.953355180300203,56.669687367194996 c0,0 6.965079155793834,-11.923543077016673 13.912583235275736,-11.923543077016673 c6.973484627073454,0 67.37672950992491,1.6069732819127192 75.57588467631743,0 c8.203739968908678,-1.6253124919773434 58.170446057483424,-35.80654351742658 64.15437747481984,-39.79302930522432 C256.11728381940463,240.21595571797133 251.29559983991385,226.40194573679295 239.70063427655492,232.02138535409497 z" fill="#ffffff" id="svg_5" fill-opacity="1"/>
		<polygon points="42.07195854187012,245.32188606262207 42.07195854187012,318.78038215637207 93.90315055847168,309.07588386535645 80.93656730651855,238.48440742492676 " fill="#ffffff" id="svg_6" fill-opacity="1"/>
	</g>
</g><g id="svg_7">
</g><g id="svg_8">
</g><g id="svg_9">
</g><g id="svg_10">
</g><g id="svg_11">
</g><g id="svg_12">
</g><g id="svg_13">
</g><g id="svg_14">
</g><g id="svg_15">
</g><g id="svg_16">
</g><g id="svg_17">
</g><g id="svg_18">
</g><g id="svg_19">
</g><g id="svg_20">
</g><g id="svg_21">
</g></g></svg>